<?xml version="1.0" encoding="UTF-8" standalone="no"?>
<!DOCTYPE svg PUBLIC "-//W3C//DTD SVG 1.1//EN" "http://www.w3.org/Graphics/SVG/1.1/DTD/svg11.dtd">
<svg width="100%" height="100%" viewBox="0 0 21 17" version="1.1" xmlns="http://www.w3.org/2000/svg"
    xmlns:xlink="http://www.w3.org/1999/xlink" xml:space="preserve"
    xmlns:serif="http://www.serif.com/"
    style="fill-rule:evenodd;clip-rule:evenodd;stroke-linejoin:round;stroke-miterlimit:2;">
    <g transform="matrix(1,0,0,1,-1.5,-3.75)">
        <path d="M22.5,6.75L22.5,6.7568L22.5,6.9874L22.5,17.25C22.5,18.8958 21.1458,20.25 19.5,20.25L4.5,20.25C2.8542,20.25 1.5,18.8958 1.5,17.25L1.5,6.9939L1.5,6.7568L1.5,6.75C1.5,5.1042 2.8542,3.75 4.5,3.75L19.5,3.75C21.1458,3.75 22.5,5.1042 22.5,6.75ZM3,6.75L3,6.7568L3,6.9941C2.9999,7.5142 3.2704,7.9986 3.7133,8.2714L11.2133,12.8854C11.695,13.1821 12.305,13.1821 12.7867,12.8854L20.2867,8.2704C20.7296,7.9976 21.0001,7.5132 21,6.9931L21,6.7568L21,6.75C21,5.9271 20.3229,5.25 19.5,5.25L4.5,5.25C3.6771,5.25 3,5.9271 3,6.75ZM21,9.5927L13.5733,14.1626C12.6101,14.7559 11.3899,14.7559 10.427,14.1628L3,9.5937L3,17.25C3,18.0729 3.6771,18.75 4.5,18.75L19.5,18.75C20.3229,18.75 21,18.0729 21,17.25L21,9.5927Z" style="fill:#000;"/>
    </g>
</svg>