<?xml version="1.0" encoding="UTF-8" standalone="no"?>
<!DOCTYPE svg PUBLIC "-//W3C//DTD SVG 1.1//EN" "http://www.w3.org/Graphics/SVG/1.1/DTD/svg11.dtd">
<svg width="100%" height="100%" viewBox="0 0 22 20" version="1.1" xmlns="http://www.w3.org/2000/svg"
    xmlns:xlink="http://www.w3.org/1999/xlink" xml:space="preserve"
    xmlns:serif="http://www.serif.com/"
    style="fill-rule:evenodd;clip-rule:evenodd;stroke-linejoin:round;stroke-miterlimit:2;">
    <g transform="matrix(1,0,0,1,-1,-2)">
        <g>
            <path d="M2,4C1.4481,4 1,3.5519 1,3C1,2.4481 1.4481,2 2,2L22,2C22.5519,2 23,2.4481 23,3C23,3.5519 22.5519,4 22,4L2,4Z" style="fill:#000;"/>
            <path d="M20,3C20,2.4481 20.4481,2 21,2C21.5519,2 22,2.4481 22,3L22,14C22,15.6458 20.6458,17 19,17L5,17C3.3542,17 2,15.6458 2,14L2,3C2,2.4481 2.4481,2 3,2C3.5519,2 4,2.4481 4,3L4,14C4,14.5486 4.4514,15 5,15L19,15C19.5486,15 20,14.5486 20,14L20,3Z" style="fill:#000;"/>
            <path d="M7.7071,21.7071C7.3168,22.0974 6.6832,22.0974 6.2929,21.7071C5.9026,21.3168 5.9026,20.6832 6.2929,20.2929L11.2929,15.2929C11.6834,14.9024 12.3166,14.9024 12.7071,15.2929L17.7071,20.2929C18.0974,20.6832 18.0974,21.3168 17.7071,21.7071C17.3168,22.0974 16.6832,22.0974 16.2929,21.7071L12,17.4142L7.7071,21.7071Z" style="fill:#000;"/>
        </g>
    </g>
</svg>